<?xml version="1.0" encoding="utf-8"?>
<!-- Generator: Adobe Illustrator 18.0.0, SVG Export Plug-In . SVG Version: 6.00 Build 0)  -->
<!DOCTYPE svg PUBLIC "-//W3C//DTD SVG 1.1//EN" "http://www.w3.org/Graphics/SVG/1.1/DTD/svg11.dtd">
<svg version="1.1" id="Layer_1" xmlns="http://www.w3.org/2000/svg" xmlns:xlink="http://www.w3.org/1999/xlink" x="0px" y="0px"
	 viewBox="0 0 1400 1100" enable-background="new 0 0 1400 1100" xml:space="preserve">
<g>
	<defs>
		<rect id="SVGID_5_" x="0" width="1400" height="1100"/>
	</defs>
	<clipPath id="SVGID_2_">
		<use xlink:href="#SVGID_5_"  overflow="visible"/>
	</clipPath>
	<g clip-path="url(#SVGID_2_)">
		<rect x="991.3" y="421.8" fill="#E1E66F" width="319.8" height="285.8"/>
		<path fill="#CFDF65" d="M1005.5,458.6c22.8,7.3,34.6,37.7,22.6,58.4c14.1-2.1,26.2,16.4,18.7,28.5c10-2.6,21.5,1.5,27.6,9.8
			c6.1,8.4,6.5,20.5,0.9,29.3c15.7-0.1,29,17.1,24.9,32.3c15.8-8,37.3-1.3,45.9,14.1c15.7-22.1,47.9-30.7,72.5-19.1
			c19.7-20.6,50.9-29.3,78.4-22c31.4,8.4,55.6,42.4,49.4,74.2c-6.2,31.9-32.3,56.9-61.8,70.4s-62.4,17.1-94.7,20.5
			c-57.4,6-118.8,10.7-169.3-17.2c-47.7-26.4-77.5-80.4-78.9-134.9C940.4,548.5,965.4,495.6,1005.5,458.6z"/>
		<path fill="#CFDF65" d="M1357,617c-22-2.3-44.6-4.8-64.2-15c-19.6-10.2-35.8-30.2-34.8-52.3c-22.6-0.9-38.7-29.5-27.8-49.3
			c-19.7,2.6-39-17.3-35.8-36.9c-16.3,17.3-49.3,13.4-61-7.4c-9.1,16.6-37.8,15.8-46.1-1.2c-2.7,12.9-19.4,20.6-31,14.2
			c-3.8,17-31.1,21.7-40.5,7c-13,19.7-38.6,30.2-61.7,25.1c-23-5-42-25.2-45.6-48.5c54.7-43.3,117.3-78.6,186.9-83.5
			s141.7,15.9,194.4,61.6C1342.7,476.6,1364.9,547.7,1357,617z"/>
		<path fill="#8AC974" d="M1269.3,451.6c-8.6,15.6-9.5,35.1-2.4,51.5s22,29,39.2,33.4c-9.8,6.6-14.9,19.3-12.6,30.8
			c2.4,11.5,12.2,21.1,23.7,23.3c-16.1,5.9-23.2,28.3-13.6,42.5c-12.7-3.4-27.1,0.2-36.7,9.2c-9.6,9-14.2,23.1-11.7,36
			c-12-7.5-27.8-8.3-40.5-2.2c-12.7,6.1-21.9,19-23.5,33c-7-20.4-43.3-27.7-55.6-9.9c-3.2-20.6-28.7-34.3-47.7-25.6
			c0.9-11.3-9-21.2-20-24.2c-10.9-3-22.6-0.9-33.7,1.2c10.6-11.7,12.3-30.4,4.2-43.8c-8.2-13.4-25.6-20.5-40.8-16.5
			c14.5-17,12.7-45.4-3.8-60.5c-4.9-4.5-11.2-8.5-12.5-15c-0.9-4.7,1.1-9.4,2.4-14.1c6.1-22-7.5-47.6-29.2-54.8
			c6.1-13,1.1-29.3-11.6-36.2c-52.2,7.4-91.9,55.8-104.2,107s-0.7,105.5,18.8,154.4c11.6,28.9,26.2,57.1,47.3,80.1
			c27,29.5,63,49,99.3,65.8c85.1,39.4,183,67,272.1,37.4c35.6-11.8,67.8-32.2,96.3-56.6c17.1-14.6,33.1-31,44.5-50.4
			c18.4-31.3,23.5-68.4,27.6-104.5c6.1-53,10.5-108.3-8.3-158.2c-18.8-49.9-67.7-92.5-120.7-86.7c-14.8,1.6-29.7,7.3-39.6,18.4
			C1266.2,427.5,1261.9,438.7,1269.3,451.6z"/>
		<path fill="#8AC974" d="M1311.2,422.6c-34.3,14.2-76,8.6-105.3-14.1c-7.3,11-21.2,17.2-34.3,15.4c-13.1-1.9-24.7-11.7-28.6-24.4
			c-6.8,11.4-20.4,18.4-33.6,17.3s-25.5-10.2-30.3-22.6c-11.5,26.5-53,32.6-71.7,10.7c-0.7,16-11.6,31-26.5,36.7
			c-14.9,5.7-33,1.8-44.2-9.6c-13.4,33.1-59.3,47.7-89.4,28.5c-9.9,13.2-29.5,18.1-44.5,11.1c-15-7-23.8-25.1-20.1-41.3
			c-44.8,9.4-93.2-29.5-93.6-75.3c-15.2-18.1-30.6-38.6-40.2-60.1c-9.6-21.5-12.7-47.1-3.1-68.6c9.7-21.6,30.7-36,51.8-46.8
			c106.4-54.5,237.9-45,346.7,4.5C1153,233.6,1236.9,328.8,1311.2,422.6z"/>
		<path fill="#66C07F" d="M97.2-19.3c5.9,75.1,53.5,142.4,114.4,186.7s134.2,68.2,207.5,85.5c60.5,14.2,123.3,24.4,184.5,14.2
			c8.9,10.4,23.4,13.2,36.6,9.6c13.2-3.6,23.9-15.2,26.3-28.7c10.4,13.7,29.2,20.2,45.9,16s30-19.1,32.6-36
			c11.1,10.2,28.5,12.7,42,6.1s22.2-21.9,21-36.9c3.8,13.1,21.5,17.6,34.1,12.2s21-17.1,28.8-28.3c-5.5,11.1,0.3,22.1,7.8,31.9
			s20.8,14.8,33,12.4c-17.1,12.1-20.2,39.8-6.1,55.3c14.1,15.5,42,15.2,55.7-0.7c-0.4,21.1,21,38.1,42.1,38.4
			c21.1,0.3,40.6-12.2,55-27.6c4.9,11.6,16.3,20.1,28.8,21.6c12.5,1.5,25.6-4.1,33.1-14.2c18.8,15.8,45.6,20.8,67.5,9.5
			c-12.4,9.5-14.4,30.6-8.8,45.1c5.6,14.6,21.4,24.5,36.9,23.3c-11.4,6.9-17.5,21.7-14.2,34.7c3.3,13,15.7,23.1,29.1,23.7
			c-9.3,12.3-9.3,30.9,0.2,43.2c9.4,12.3,27.4,17.1,41.7,11.2c-4.5,16.3,2.7,35.2,17,44.3c14.3,9.1,34.4,7.8,47.4-3.1
			c-11.3,19.2,5.6,45,27,51.3c21.4,6.2,44.1-0.9,65.3-8c6-197.6,6.6-395.8-16.7-592.1c-295.9-92.1-609.5-126.6-918.3-101.1
			C357.5-108.7,219.5-85,97.3-23.2C102.6-25.8,91.8-16.7,97.2-19.3z"/>
		<path fill="#66C07F" d="M71.9-42.3c46.4,7.9,82.7,54.8,78.7,101.7c8.9-8.6,24.1-9.5,33.9-2c9.8,7.5,13.1,22.4,7.2,33.2
			c8.5-8.7,22.5-11.4,33.7-6.6s18.8,16.9,18.3,29c6.3-9.5,19.2-14.1,30.1-10.8s18.9,14.4,18.8,25.9c4.1-10.1,15.4-16.8,26.2-15.6
			c10.9,1.2,20.4,10.3,22.1,21c3.6-11.1,15.2-19.1,26.9-18.4c11.7,0.6,22.3,9.8,24.7,21.3c5-13.4,21-21.6,34.8-17.9
			c13.8,3.7,23.5,18.9,21,33c11.7-13.6,33.6-16.8,48.8-7.2c15.1,9.6,21.5,30.8,14.2,47.2c11.1-9.3,29.1-8.8,39.7,1
			s12.3,27.8,3.8,39.5c23.9-12.4,47.9-17.1,74.8-15.1c5.6,12.8,7.9,27,6.6,40.8c13.3-11.5,34.4-12.8,49.1-3.1
			c14.7,9.8,21.6,29.8,16.1,46.5c12.8-11.6,35.2-10,46.2,3.2c11.1,13.2,8.6,35.6-5.1,46.1c6.5-4.7,15.6,2.8,17.3,10.7
			s-0.4,16.3,2.1,24c4.1,12.6,19.5,18.6,32.6,16.4c13.1-2.1,24.3-10.3,35-18.2c10.7,0.7,16.4,12.5,18.3,23.1
			c1.9,10.6-4.2,22-14,26.4c9.3-6.6,23.1-6,31.9,1.4c8.7,7.4,11.6,20.9,6.7,31.2c8.8,0,17.7,0.1,26.5,0.1
			c13.9,12.2,9.1,38.9-8.2,45.4c9.2,2,15.5,12.5,13,21.6s-13.2,14.9-22.2,12c15.3,4.3,20.3,27.8,8.1,37.9
			c23.2-2.9,42.9,26.8,31.3,47.1c12.4-7.5,29.5,0.2,37.2,12.5c7.7,12.3,8.6,27.5,9.3,41.9c21.7-20.7,63-13,75.7,14.2
			c10.1-8.4,25.9-9,36.6-1.3s15.2,22.8,10.5,35c20.3-4.3,41.6,16.4,37.8,36.9c2.5-5.9,4.9-11.8,7.4-17.7c7.2-17.3,42.1-8.5,47.5,9.5
			c12.5-20.8,44.9-25.8,63.2-9.8c8.4-17.4,36-21,48.6-6.3c-11-17.2-8-42.1,6.9-56.2c14.8-14.1,39.8-15.9,56.5-4.1
			c-9.2-16.7-7.9-38.6,3-54.2c11-15.6,31.2-24.1,50-21.1c5.3-14.7,23.7-23.2,38.3-17.6c-5.4,87-22.6,177.3-28,264.3
			c-0.8,12.7-2.3,26.9-12,35.2c-7.2,6.1-17.3,7.3-26.7,8.3c-291,28.1-588.1-9.3-863-108.6c-129.3-46.7-256.1-108.6-354.1-205
			C26.8,448.9-43.3,246.1-18.5,53.3C-15.2,27.7-9.8,1,6.7-18.9S46.5-46.7,71.9-42.3z"/>
		<path fill="#35A761" d="M855.4,1c0.9,1.4,1.7,2.7,2.6,4.1c1.1,13.2-7.1,26.7-19.4,31.8s-27.6,1.4-36.2-8.7
			c-2.5,12.1-12.9,22.2-25.1,24.4s-25.4-3.7-32-14.2c4.5,10.9-0.7,24.8-11.3,30c-10.6,5.2-28.4,5.4-34.3-4.8
			c4.4,13.9-3.3,30.6-16.8,36.2s-30.7-0.7-37.5-13.6c3.4,13.4-3.5,28.6-15.7,35c-12.2,6.3-28.7,3.2-37.6-7.3
			c-5.1,7.8-11.3,15.3-19.5,19.7c-8.2,4.4-18.9,5.2-26.6,0c-7.7-5.2-10.7-17.2-4.7-24.4c-10.3,8.2-26.8,7.1-35.8-2.6
			c-9-9.6-9-26.2-0.1-35.9c-14.5,8-35.6-2.8-37.6-19.3c-4.6,8.4-15.6,12.8-24.7,9.9c-9.2-2.9-13-12.3-11.9-21.9
			c1.1,11.9-7.5,24-19.1,26.8c-11.6,2.9-24.8-3.8-29.4-14.9C378,63.6,364,71.7,351,69.4c-13-2.3-23.5-14.6-23.6-27.8
			c-9.1,10.5-24.8,14.7-38,10.2c-13.2-4.5-23-17.3-23.9-31.2c-13.8,15.7-41.3,10.3-55.1-5.4s-17.6-37.5-20.9-58.1
			c169.6-6.6,341.1-16.3,510.7-22.9c29-1.1,58.7-2.2,86.6,6C814.6-51.6,839.8-23.6,855.4,1z"/>
		<path fill="#35A761" d="M-28.8,626.8c3-1-1.9,3.6-3.3,0.8C65.4,759.1,179.3,883,300.6,993l1096.9,0.3c2.6-0.8,11.5-3,14.1-3.8
			c-3.8-69.4-4.4-142.5-3.3-212c-12.8,2.6-25.9,11-30.1,23.3c-21.8-15.5-56.9-4.9-66.6,20c-8.7-9.8-22.6-14.5-35.4-12.2
			c-12.8,2.3-24.2,11.7-28.9,23.9c-1.2-10.8-8.7-20.7-18.8-24.8c-10.1-4.1-22.3-2.2-30.7,4.7c3-12.2-4.3-26.1-16.1-30.6
			c-11.8-4.5-26.4,1.1-32.3,12.2c-3.9-12.8-16.1-22.6-29.5-23.5c-13.3-1-26.9,6.9-32.6,19c-3.5-9.9-12.9-17.6-23.3-19.1
			s-26.8,8.5-33,17c2.8-12.7-3-26.8-14-33.8s-26.2-6.5-36.6,1.3c1.7-7.7-3.1-16.3-10.5-19s-16.6,1-20.2,8
			c5.2-13.4-1.3-30.3-14.1-36.9c-12.8-6.6-30.2-2-38.2,10c6.9-13.1,12.5-28.2,8.3-42.3c-4.3-14.1-22.8-24.1-34.5-15.1
			c7.2-6.8,8.7-18.9,3.3-27.2c-5.4-8.3-17-12-26.2-8.3c8.8-5.2,16.6-14.2,15.8-24.4c-0.7-10.2-13-19.5-21-13.2
			c8.1-8.4-0.1-25.3-11.7-24.2c7.7-5.7,8.6-18.6,1.7-25.3c-6.9-6.7-19.8-5.5-25.3,2.4c8.1-11.3,7.7-27.9-0.9-38.8s-24.8-15-37.6-9.7
			c10.3-9.8,18.2-24,14.9-37.8c-3.4-13.8-22.4-22.8-32.7-13c2.9-12.5-6.4-26.5-19-28.7c-12.7-2.2-26.1,8-27.5,20.7
			c-8.6-14.2-30.3-18.2-43.3-7.9c1.9-11.9,3.6-24.7-2.2-35.2c-5.7-10.5-22.2-15.6-29.8-6.3c7.1-6.1,8.9-17.6,4-25.6
			c-4.9-8-16-11.6-24.7-7.9c6.5-6.4,12.6-13.8,15.1-22.7c2.4-8.8,0.4-19.4-6.9-25s-19.9-3.4-23.2,5.1c7.4-7.1,5.8-20.5-1.9-27.2
			c-7.7-6.7-19.5-7.3-28.9-3.4s-16.7,11.8-22.4,20.3c4.5-10.7-2.9-24.6-14.3-26.8c-11.4-2.2-23.4,8.1-23.1,19.7
			c2.4-9-1.9-19.4-9.9-24.1c-8-4.8-27.6-1.5-34.3,4.9c7.5-6.8,9.9-18.6,5.6-27.8s-14.8-15-24.8-13.8c8.7-8.1,10.9-22.3,5-32.6
			s-19.2-15.7-30.5-12.4c6.6-19.9-5.9-44.1-26-50.1c-20.1-6-43.9,7.2-49.3,27.5c-4.7-8.4-14.6-13.5-24.2-12.6s-18.2,8-21.2,17.1
			c-3.8-11.9-24.7-11.4-27.9,0.7c-1.4-8.3-9.2-15.1-17.6-15.4c-8.4-0.3-16.7,5.9-18.6,14.2c-6-10.4-21.4-13.8-31.2-6.9
			c-10.4-17.9-36.7-24.2-54.1-12.8c5.8-14.3,1.1-32-11-41.6s-30.5-10-43-1.1c7.2-11.2,4.5-27.5-5.9-35.8s-26.9-7.4-36.2,2
			c5.2-17.6,0.8-37.7-11.3-51.5S5.7-4-12.5-1.3C-17.9,203.4-23.4,422.1-28.8,626.8z"/>
		<polygon fill="#35A761" points="1340.8,274.1 1349.8,390.2 1333.3,718.9 1341.6,843.3 1370.8,836.6 1352.1,735.5 1427.2,572.6 
			1348.3,707.6 1354.3,469.1 1427.2,370.1 1352.8,451 1360.3,390.2 		"/>
		<path fill="#35A761" d="M1409.1,490.3c-9.4,3.9-21.2,1-27.8-6.8s-7.3-20-1.8-28.6c-6.3,7-17.9,8.3-25.9,3.3s-12.2-15.2-10.7-24.5
			c-12.4,9.1-30.4,9.9-43.5,1.8s-20.5-24.5-17.9-39.7c-11.6,15.9-36,20.6-52.7,10.3c-16.8-10.3-26.3-32.4-17.3-49.9
			c-12.7,8.7-32.3,4.9-40.9-7.9c-8.6-12.8-4.5-32.4,8.4-40.8c-14.2,3.3-30-7.9-31.6-22.4c-1.6-14.5,11.4-28.9,26-28.8
			c-13-1.6-26.4-7.4-32.7-18.9c-6.3-11.5-1.9-28.8,10.7-32.5c-9.3,1.2-19.2,2.4-27.8-1.2c-8.7-3.6-18.7-13.4-15-22.1
			c2.5,10.7-3.9,22.7-14.2,26.5c-10.3,3.8-23-1.1-28.1-10.8c-3.4,13.8-15.8,24.9-29.9,26.7c-14.1,1.8-28.9-5.8-35.7-18.3
			c-3.9,10-16.2,16-26.5,12.7c-10.3-3.2-15-19.1-12.6-29.6c-11.2,9.9-29.3,11.1-41.7,2.6s-17.8-25.8-12.6-39.8
			c-12.2-0.5-23.7-8.4-28.5-19.6c-4.8-11.2-2.5-25,5.6-34.1c2.3-0.4,4.6-0.8,6.8-1.2c-9.6,0.3-19.9,0.4-27.8-4.9
			c-8-5.3-11.4-18.3-4-24.4c-20.7-0.4-40.2-16.3-44.5-36.6s6.7-42.8,25.4-51.7c1.3,0.7,3.7-0.8,5-0.1h576.2
			C1446.4,148.4,1446.3,323.2,1409.1,490.3z"/>
		<g>
			<polygon fill="#2C864F" points="623.9,-43.9 635.6,244.1 490.4,539.6 546.2,572.6 646.4,352.8 659.9,236.5 644.9,-43.9 			"/>
			<polygon fill="#2C864F" points="1013.9,-28 983.9,70.1 874.7,148.1 761.9,206.6 635.6,327 647.9,257.5 752.9,190 864.3,137.8 
				938.9,62.6 943.4,-28 			"/>
			<polygon fill="#2C864F" points="351.6,-43.9 351.6,171.6 268.3,310.5 242.9,460.6 318.5,476.3 311.1,312.4 383.1,184 383.1,-28 
							"/>
			<polygon fill="#2C864F" points="509.4,-52.9 517.4,49 575.1,184 623.9,291.4 647.9,257.5 592.4,171.6 530.9,49 529.4,-35.1 			
				"/>
			<polygon fill="#2C864F" points="731.9,-35.1 641.9,86.1 641.9,131.6 742.5,-28 			"/>
			<path fill="#2C864F" d="M887.5-39.8c-3.4-1.3-168.1,726.8-168.1,726.8l32,48.5L905.9-28L887.5-39.8z"/>
			<polygon fill="#2C864F" points="893.9,390.2 798,443.6 789,476.3 			"/>
			<polygon fill="#2C864F" points="1013.9,-28 975.4,392.2 965.9,501 899.9,659.8 883.4,770.6 859.4,792.2 911.9,843.3 905.9,776.6 
				922.4,666.3 989.9,501 995.9,376.1 1006.4,257.5 			"/>
			<polygon fill="#2C864F" points="1123.3,-10.9 991.3,305.8 991.3,361.1 			"/>
			<polygon fill="#2C864F" points="1067.5,469.1 1013.9,550 936.6,614.6 917.9,653.6 1021.4,561.3 			"/>
			<polygon fill="#2C864F" points="917.9,352.8 925.4,451 965.9,501 975.4,476.3 941.7,450.2 			"/>
			<polygon fill="#2C864F" points="1232.8,298.1 1232.8,485.6 1259.8,641.6 1201.3,770.6 1159.3,878.6 1137.6,899.7 1214.8,925.1 
				1207.3,869.6 1225.3,775.1 1292.8,666.3 1240.3,501 1255.3,450.2 1303.3,407.6 1303.3,361.1 1370.8,298.1 1292.8,361.1 
				1291.3,405 1247.8,433.2 1240.3,281.6 			"/>
		</g>
		<path fill="#2C864F" d="M1475.2,950.4c-194.2-16.6-392.5-44.3-564.6-135.8C764,736.7,644,616.4,501.5,531.1
			C329.4,428.1,125.6,379-74.5,392.3C90.1,611.3,301.2,800.4,550,915s531.2,159.8,801.7,116.3
			C1404.6,1022.8,1464.8,1002.9,1475.2,950.4z"/>
		<g>
			<path fill="#147549" d="M1419.2,1034c-473.5,65.2-958.1,61-1428.2-25c8.6-209.1-15.5-418.2-81.6-616.8
				C159.6,396.3,407.7,486,602.7,643c62.7,50.5,120.1,107.7,186.8,152.6c183.8,123.7,416.6,141.8,637.7,154.8
				C1418.1,975.9,1418,1006.8,1419.2,1034z"/>
			<polygon fill="#147549" points="668.3,-27.4 678.6,244.1 656.4,393.6 567.9,645.4 634.4,707.6 685.4,392.2 703.4,244.3 
				678.6,-35.1 			"/>
			<polygon fill="#147549" points="789,-43.9 686.9,170.6 686.9,216 798,-35.1 			"/>
			<polygon fill="#147549" points="398.9,17 398.9,185 275.9,477 324.4,501 427.4,190 427.4,-28 398.9,-28 			"/>
			<polygon fill="#147549" points="292.4,-40.8 412.4,184 405.4,145 300.4,-43.9 			"/>
			<path fill="#147549" d="M601.4-35.1c-2,5.1-53,121.1-53,121.1l-136,68.9l15,35l131-95l48-123L601.4-35.1z"/>
			<g>
				<polygon fill="#147549" points="1259.8,-35.1 1184.8,421.8 1114.3,581.3 1031.9,843.3 975.4,896.4 1109.8,937 1097.8,891.1 
					1172.8,595.1 1205.8,520.1 1216.3,421.8 1253.8,190 1250.8,137.6 1285.3,-35.1 				"/>
				<polygon fill="#147549" points="1408.3,0 1382.8,124.1 1304.8,196.1 1226.8,286.1 1214.8,343.1 1311.6,206.6 1400,128.6 				"/>
				<polygon fill="#147549" points="1143.4,-35.1 1240.3,184 1240.3,136.1 1156.3,-35.1 				"/>
				<polygon fill="#147549" points="1096.3,236.5 1117.3,368.6 1178.8,469.1 1178.8,440.6 1130.4,362.6 				"/>
			</g>
		</g>
		<g>
			<g>
				<path fill="#005648" d="M1415.6,1102.3c-474.9,94-971.6,103.8-1447.1,12.8c-20.1-216.1-29.6-437.5-32.7-654.5
					c178.1,13.9,340.5,104.4,489.9,202.2s295.2,206.5,463.9,264.9c170.3,59,359.2,62.8,531.7,10.9
					C1415.7,991.1,1414.3,1049.5,1415.6,1102.3z"/>
				<polygon fill="#005648" points="236.9,-35.1 150.3,122.6 110.2,336.3 89.9,521.6 157.4,550 150.3,353.6 182.8,128.6 
					262.4,-28.9 				"/>
				<polygon fill="#005648" points="463.4,-35.1 449.9,188.6 373.4,327 275.9,592.1 362.9,659.8 369.6,575.6 451.4,315.6 490.4,216 
					490.4,-35.1 				"/>
				<polygon fill="#005648" points="853.4,-52.9 779.3,145.4 721.4,425.6 661.4,739.1 623.9,811.1 751.4,896.4 728.9,749.5 
					766.9,460.6 812.7,167.2 899.9,-35.1 				"/>
			</g>
			<path fill="#005648" d="M1018.4,976.1c16.4-15.7,32.8-31.4,49.2-47.1c-18.3,10.3-36.6,20.5-55,30.8c11-12.5,22-25,33-37.5
				c-14.1,8.5-28.1,16.9-42.2,25.4c16-18,32-36.1,47.9-54.1c-20.4,15.7-40.8,31.3-61.1,47c4.9-12.4,13.3-23.5,23.8-31.6
				c-20.3,11.3-40.6,22.7-60.9,34c7.3-8.5,14.5-16.9,21.8-25.4c-15,6-30,12-45,18c7-7.5,14-14.9,21-22.4c-15,5.5-30,11-45,16.5
				c9-8.5,18-17,27-25.5c-12.7,2.1-25,6.8-36,13.5c7.5-8.5,15-17,22.5-25.5c-13.4,3.4-25.9,10.2-36,19.5c7.5-9.5,15-19,22.5-28.5
				c-15.3,3.6-29.2,12.9-38.5,25.6c2.4-8.1,4.8-16.3,7.2-24.4c-6.7,6-13.3,11.9-20,17.9c0.1-6.9,0.2-13.8,0.3-20.7
				c-6.5,5.1-10.9,12.8-12,21c-1.6-8-3.1-16-4.7-24.1c-2.5,6.5-5,13-7.5,19.5c-0.4-13.2-5.7-26.3-14.8-35.9c1.5,21,3,42,4.5,63
				c61.8,22.5,129.4,44.4,195.1,48.9C1013.6,975.3,1020.3,974.7,1018.4,976.1z"/>
			<path fill="#005648" d="M494.9,719.6c-0.7,1.8-1.3,3.6-2,5.4c24-19.8,51.1-35.8,80-47.3c-23.4,0.6-46.7,6.1-67.9,16
				c21-16.1,41.9-32.2,62.9-48.2c-28,6.6-54.8,18.1-78.9,33.8c21.5-21.1,40-45.3,54.8-71.6c-18.5,27-45.6,47.9-76.4,58.8
				c11.1-11.8,22.2-23.7,33.3-35.5c-20.8,6.6-40.2,17.5-56.6,31.8c7.5-12,15-24,22.5-36c-14.7,4.5-27.8,14-36.5,26.7
				c1.1-10.9,4.2-21.6,9.3-31.3c-10.8,6.8-18.9,17.7-22.4,29.9c-3-14.5-6-29-9-43.5c-5.9,20-9,40.7-9.2,61.5
				C428.7,687.4,461.5,710.8,494.9,719.6z"/>
			<path fill="#005648" d="M738.5,891.1c20.9-24.4,47.5-43.9,77.2-56.5c-19.5,5.6-39,11.1-58.5,16.7c26.8-17.5,53.6-34.9,80.4-52.4
				c-24.9,6.1-49.9,12.1-74.8,18.2c51.2-28.2,91.7-75.3,111.8-130.2c-31.2,39.8-69.5,73.9-112.5,100.5
				c13.9-19.6,27.9-39.2,41.8-58.7c-19.1,17.4-38.2,34.8-57.4,52.2c6.5-15.9,13.1-31.9,19.6-47.8c-26.6,27.6-48.1,60.1-63.1,95.3
				C722.2,842.8,735.7,867.5,738.5,891.1z"/>
		</g>
		<path fill="#004842" d="M164.9-35.1l-60.5,259.7c0,0-59.5,322.3-55,325.4s15,157.6,15,157.6H-33l19.4-466.5L65.9-35.1H164.9z"/>
		<path fill="#004842" d="M1409.1,930.4c-198.3,25.8-386.9,133.1-586,113.7c-157.5-15.4-295.4-108-426.6-196.5S125,669-33,659.8
			l10.4,473.2h1462.4L1409.1,930.4z"/>
		<path fill="#00323B" d="M388,949.4c-20.6-47.7-53.3-116.7-73.9-164.4c-15.2-35.1-30.6-70.9-34.2-109
			c-4.2-43.9,7.5-87.5,15.5-130.9c8-43.4,15.5-97-3-137c43.5-42,98.8-87.1,159-92.5c79.2-7.1,162.8-18.4,239.1-40.9
			c12.5-33.6,31-67.4,50.6-97.4c32.1-4.2,64.8-9.3,96.9-13.5c25.8-27,56.6-53.7,86-76.8c1.6-37.7,22.4-77.1,51.4-101.3
			c-22.7,1-44.9,4.7-67.6,5.6c-11.9,25.1-0.4,57-13.7,81.4c-4.3,7.9-10.9,14.3-17.6,20.3c-17.6,15.9-32.4,37.5-55.4,43.3
			c-32.2,8.1-64.9,13.2-97.7,18.7c-18,22.7-42,50.2-60,72.8c-132.5,23.3-265.3,55.3-393,97.4c-7-56.5-34.2-123.2-10.2-174.8
			C298.1,69.2,353.6-4.9,422.6-62.2H305.4C267,1.3,228.5,64.8,190.1,128.3c-24.9,41.2-27.2,94-39.8,140.5
			c20.4,52.7,38.7,112.1,53,166.8c20.4,77.8-34.4,159.2-34.5,239.6c-0.1,77.1,30.2,150.7,60,221.8c42.6,13.7,84.1,28.9,126.7,42.6
			c4.4,1.4,21,24.2,25.5,23.1C385.4,961.5,389.9,953.6,388,949.4z"/>
		<path fill="#00323B" d="M177,261.3C111.6,173,63.9,71.6,37.7-35.1c36.9,91.9,87.1,175.3,145.1,255.6
			C183.4,233.9,176.3,247.9,177,261.3z"/>
		<polygon fill="#00323B" points="-13.6,352 18.4,405 160.4,454 222.4,501 202.4,404 160.4,413 37.7,380 -13.6,327 		"/>
		<polygon fill="#00323B" points="390.4,314 478.4,336 562.9,405 817.4,374 938.4,304 1084.4,309 1143.4,273 1083.4,302 945.4,286 
			913.4,291 915.4,266 963.4,216 906.4,259 886.4,302 814.4,354 598.4,376 503.4,296 		"/>
		<path fill="#00323B" d="M-35,792.2c163.7,35.9,316.4,108.7,471.8,171.5s318.9,116.5,486.4,111.2c171.6-5.5,345.5-82.8,516.5-67.6
			V1133H-22.6L-35,792.2z"/>
		<path fill="#004842" d="M505.3,937c11.5-13.5,23-27.1,34.4-40.6c-13.7,8.4-29.4,13.6-45.4,15c13.6-13.1,27.1-26.2,40.7-39.3
			c-22.9,7.2-45.7,14.3-68.6,21.5c25.9-19.1,51.9-38.1,77.8-57.2c-29.1,7.7-56.9,20.1-82.1,36.5c28-27.6,56-55.2,84.1-82.8
			c-33.1,16.7-63.1,39.7-87.9,67.3c15.6-28.5,31.2-56.9,46.8-85.4c-18.8,32-41.4,61.9-67.2,88.7c6.5-15.5,13.1-30.9,19.6-46.4
			c-16.4,8.2-32.7,16.4-49.1,24.6c24.6-24.9,49.2-49.8,73.8-74.7c-31.8,15-61.5,34.4-88,57.5c9.4-24,18.9-48.1,28.3-72.1
			c-15.6,21.9-31.2,43.9-46.7,65.8c2.5-13.5,5-26.9,7.6-40.4c-6.5,14.5-13.1,29-19.6,43.5c0.1-17.9,0.3-35.9,0.4-53.8
			c-8,23.6-11.6,48.6-10.5,73.5c20.4,20.8,45.5,44,68.8,61.4C446.1,916.8,476.7,931.8,505.3,937z"/>
		<path fill="#004842" d="M909.4,1060.4c10.1-16.4,22.1-31.6,35.7-45.3c-22,6.8-42.6,18.1-60.3,32.9c7.1-10.4,14.1-20.8,21.2-31.2
			c-14,8-28.1,16-42.1,24c11.7-13,23.4-26.1,35.1-39.1c-28.1,15.4-57.5,28.3-87.8,38.5c12.5-12.4,25.1-24.8,37.6-37.2
			c-16.4,9.1-32.8,18.1-49.3,27.2c22.4-28.6,44.7-57.3,67.1-85.9c-29.7,25.8-59.5,51.7-89.2,77.5c8.8-15.8,17.6-31.5,26.3-47.3
			c-17.2,9.5-31.8,23.7-41.8,40.6c5.5-17.1,11-34.2,16.6-51.3c-19.3,12.7-35,30.5-45.2,51.2c-0.5-10.5-1.1-21-1.6-31.5
			c-7,10-14,20-21,30c-2-11.5-4-23-6-34.5c-4.8,7-7,15.6-6.1,24.1c-6.2-16.1-12.3-32.2-18.5-48.3c1.6,24,3.1,48.1,4.7,72.1
			C757.2,1053.9,832.7,1068.2,909.4,1060.4z"/>
	</g>
</g>
</svg>
