<?xml version="1.0" standalone="no"?>
<svg version="1.0" xmlns="http://www.w3.org/2000/svg" width="11cm" height="11cm" viewBox="0 0 320 320" preserveAspectRatio="xMidYMid meet">
	<g transform="translate(0,320) scale(1,-1)" fill="#000" stroke="none">
		<title>A Simple Maze Puzzle, by Adam Stanislav</title>
		<path d="M0 165l0-155 105 0 105 0 0 5 0 5-40 0-40 0 0 30 0 30-25 0-25 0 0-20 0-20-20 0-20 0 0-5 0-5 25 0 25 0 0 20 0 20 15 0 15 0 0-25 0-25-5 0-5 0 0 20 0 20-5 0-5 0 0-20 0-20-45 0-45 0 0 15 0 15 5 0 5 0 0-10 0-10 5 0 5 0 0 10 0 10 20 0 20 0 0 20 0 20 35 0 35 0 0-10 0-10 10 0 10 0 0-10 0-10 20 0 20 0 0-5 0-5-25 0-25 0 0 10 0 10-5 0-5 0 0-15 0-15 35 0 35 0 0 40 0 40 20 0 20 0 0 10 0 10 15 0 15 0 0-25 0-25-5 0-5 0 0 20 0 20-5 0-5 0 0-10 0-10-20 0-20 0 0-5 0-5 20 0 20 0 0-10 0-10 15 0 15 0 0 35 0 35-20 0-20 0 0 15 0 15 10 0 10 0 0 5 0 5-15 0-15 0 0-30 0-30-25 0-25 0 0 15 0 15 10 0 10 0 0 5 0 5-15 0-15 0 0-25 0-25 10 0 10 0 0-25 0-25-15 0-15 0 0 10 0 10-10 0-10 0 0 10 0 10-10 0-10 0 0 15 0 15 10 0 10 0 0 5 0 5-25 0-25 0 0-5 0-5 10 0 10 0 0-15 0-15-40 0-40 0 0-5 0-5 10 0 10 0 0-15 0-15-25 0-25 0 0 45 0 45 20 0 20 0 0 20 0 20 5 0 5 0 0-25 0-25-20 0-20 0 0-35 0-35 15 0 15 0 0 5 0 5-10 0-10 0 0 15 0 15 40 0 40 0 0 5 0 5-10 0-10 0 0 15 0 15 35 0 35 0 0-15 0-15-10 0-10 0 0-5 0-5 10 0 10 0 0-10 0-10 10 0 10 0 0-10 0-10 5 0 5 0 0 15 0 15-10 0-10 0 0 35 0 35 25 0 25 0 0-15 0-15-10 0-10 0 0-5 0-5 15 0 15 0 0 30 0 30 25 0 25 0 0-15 0-15-10 0-10 0 0-5 0-5 15 0 15 0 0 25 0 25-10 0-10 0 0 50 0 50-25 0-25 0 0-5 0-5 20 0 20 0 0-25 0-25-15 0-15 0 0 10 0 10-5 0-5 0 0-10 0-10-10 0-10 0 0-5 0-5 20 0 20 0 0-10 0-10 5 0 5 0 0 10 0 10 5 0 5 0 0-15 0-15-30 0-30 0 0-5 0-5 10 0 10 0 0-5 0-5-25 0-25 0 0 10 0 10-5 0-5 0 0-20 0-20-35 0-35 0 0 20 0 20-5 0-5 0 0-40 0-40-25 0-25 0 0 5 0 5 20 0 20 0 0 35 0 35-10 0-10 0 0 45 0 45 25 0 25 0 0-15 0-15-10 0-10 0 0-15 0-15 45 0 45 0 0 15 0 15-25 0-25 0 0-5 0-5 20 0 20 0 0-5 0-5-35 0-35 0 0 5 0 5 10 0 10 0 0 20 0 20 20 0 20 0 0 5 0 5-55 0-55 0 0-20 0-20-10 0-10 0 0-5 0-5 10 0 10 0 0-25 0-25-10 0-10 0 0-15 0-15 5 0 5 0 0 10 0 10 5 0 5 0 0-15 0-15-15 0-15 0 0 35 0 35 5 0 5 0 0-10 0-10 5 0 5 0 0 15 0 15-10 0-10 0 0 35 0 35 5 0 5 0 0-20 0-20 5 0 5 0 0 20 0 20 60 0 60 0 0 5 0 5-75 0-75 0 0-155z"/> <path d="M160 315 l0-5 20 0 20 0 0-25 0-25-5 0-5 0 0 10 0 10-10 0-10 0 0 5 0 5 10 0 10 0 0 5 0 5-15 0-15 0 0-10 0-10-20 0-20 0 0-5 0-5 30 0 30 0 0-25 0-25-20 0-20 0 0-20 0-20-15 0-15 0 0 15 0 15 5 0 5 0 0-10 0-10 5 0 5 0 0 15 0 15-30 0-30 0 0 25 0 25 10 0 10 0 0 5 0 5-15 0-15 0 0-35 0-35 20 0 20 0 0-20 0-20 25 0 25 0 0 20 0 20 15 0 15 0 0-10 0-10 5 0 5 0 0 10 0 10 20 0 20 0 0 5 0 5-20 0-20 0 0 15 0 15 10 0 10 0 0 10 0 10 15 0 15 0 0-10 0-10 5 0 5 0 0 15 0 15-20 0-20 0 0 15 0 15 45 0 45 0 0-45 0-45-5 0-5 0 0 40 0 40-5 0-5 0 0-45 0-45 10 0 10 0 0-75 0-75-25 0-25 0 0 10 0 10-15 0-15 0 0-25 0-25 5 0 5 0 0 20 0 20 5 0 5 0 0-10 0-10 20 0 20 0 0-10 0-10 5 0 5 0 0 10 0 10 5 0 5 0 0-15 0-15-25 0-25 0 0 5 0 5 10 0 10 0 0 5 0 5-15 0-15 0 0-10 0-10-10 0-10 0 0-5 0-5 45 0 45 0 0 155 0 155-75 0-75 0 0-5z"/>
	</g>
</svg>
